<?xml version="1.0" encoding="UTF-8"?>
<svg xmlns="http://www.w3.org/2000/svg" xmlns:xlink="http://www.w3.org/1999/xlink" width="24px" height="24px" viewBox="0 0 24 24" version="1.1">
<g id="surface1">
<path style=" stroke:none;fill-rule:nonzero;fill:rgb(0%,0%,0%);fill-opacity:1;" d="M 12 2.25 C 6.625 2.25 2.25 6.625 2.25 12 C 2.25 17.375 6.625 21.75 12 21.75 C 17.375 21.75 21.75 17.375 21.75 12 C 21.75 6.625 17.375 2.25 12 2.25 Z M 12 3.75 C 16.566406 3.75 20.25 7.4375 20.25 12 C 20.25 16.566406 16.566406 20.25 12 20.25 C 7.4375 20.25 3.75 16.566406 3.75 12 C 3.75 7.4375 7.4375 3.75 12 3.75 Z M 9.164062 8.085938 L 8.085938 9.164062 L 10.921875 12 L 8.085938 14.835938 L 9.164062 15.914062 L 12 13.078125 L 14.835938 15.914062 L 15.914062 14.835938 L 13.078125 12 L 15.914062 9.164062 L 14.835938 8.085938 L 12 10.921875 Z M 9.164062 8.085938 "/>
</g>
</svg>
