<svg width="17" height="17" viewBox="0 0 17 17" fill="none" xmlns="http://www.w3.org/2000/svg">
<path id="proxy1" fill-rule="evenodd" clip-rule="evenodd" d="M0 2C0 1.05719 0 0.585786 0.292893 0.292893C0.585786 0 1.05719 0 2 0H15C15.9428 0 16.4142 0 16.7071 0.292893C17 0.585786 17 1.05719 17 2V3C17 3.94281 17 4.41421 16.7071 4.70711C16.4142 5 15.9428 5 15 5H2C1.05719 5 0.585786 5 0.292893 4.70711C0 4.41421 0 3.94281 0 3V2ZM0.850006 2.50008C0.850006 2.03414 0.850006 1.80117 0.926127 1.6174C1.02762 1.37237 1.22229 1.1777 1.46732 1.0762C1.65109 1.00008 1.88406 1.00008 2.35001 1.00008H14.65C15.1159 1.00008 15.3489 1.00008 15.5327 1.0762C15.7777 1.1777 15.9724 1.37237 16.0739 1.6174C16.15 1.80117 16.15 2.03414 16.15 2.50008C16.15 2.96602 16.15 3.19899 16.0739 3.38277C15.9724 3.62779 15.7777 3.82247 15.5327 3.92396C15.3489 4.00008 15.1159 4.00008 14.65 4.00008H2.35001C1.88406 4.00008 1.65109 4.00008 1.46732 3.92396C1.22229 3.82247 1.02762 3.62779 0.926127 3.38277C0.850006 3.19899 0.850006 2.96602 0.850006 2.50008ZM2.5 3C2.77614 3 3 2.77614 3 2.5C3 2.22386 2.77614 2 2.5 2C2.22386 2 2 2.22386 2 2.5C2 2.77614 2.22386 3 2.5 3ZM5 2.5C5 2.77614 4.77614 3 4.5 3C4.22386 3 4 2.77614 4 2.5C4 2.22386 4.22386 2 4.5 2C4.77614 2 5 2.22386 5 2.5ZM6.5 2C6.22386 2 6 2.22386 6 2.5C6 2.77614 6.22386 3 6.5 3H14.5C14.7761 3 15 2.77614 15 2.5C15 2.22386 14.7761 2 14.5 2H6.5ZM0 14C0 13.0572 0 12.5858 0.292893 12.2929C0.585786 12 1.05719 12 2 12H15C15.9428 12 16.4142 12 16.7071 12.2929C17 12.5858 17 13.0572 17 14V15C17 15.9428 17 16.4142 16.7071 16.7071C16.4142 17 15.9428 17 15 17H2C1.05719 17 0.585786 17 0.292893 16.7071C0 16.4142 0 15.9428 0 15V14ZM0.850006 14.5C0.850006 14.0341 0.850006 13.8011 0.926127 13.6174C1.02762 13.3723 1.22229 13.1777 1.46732 13.0762C1.65109 13 1.88406 13 2.35001 13H14.65C15.1159 13 15.3489 13 15.5327 13.0762C15.7777 13.1777 15.9724 13.3723 16.0739 13.6174C16.15 13.8011 16.15 14.0341 16.15 14.5C16.15 14.966 16.15 15.199 16.0739 15.3827C15.9724 15.6278 15.7777 15.8224 15.5327 15.9239C15.3489 16 15.1159 16 14.65 16H2.35001C1.88406 16 1.65109 16 1.46732 15.9239C1.22229 15.8224 1.02762 15.6278 0.926127 15.3827C0.850006 15.199 0.850006 14.966 0.850006 14.5ZM2.5 15C2.77614 15 3 14.7761 3 14.5C3 14.2239 2.77614 14 2.5 14C2.22386 14 2 14.2239 2 14.5C2 14.7761 2.22386 15 2.5 15ZM5 14.5C5 14.7761 4.77614 15 4.5 15C4.22386 15 4 14.7761 4 14.5C4 14.2239 4.22386 14 4.5 14C4.77614 14 5 14.2239 5 14.5ZM6.5 14C6.22386 14 6 14.2239 6 14.5C6 14.7761 6.22386 15 6.5 15H14.5C14.7761 15 15 14.7761 15 14.5C15 14.2239 14.7761 14 14.5 14H6.5ZM0 8.00005C0 7.05725 0 6.58584 0.292893 6.29295C0.585786 6.00005 1.05719 6.00005 2 6.00005H15C15.9428 6.00005 16.4142 6.00005 16.7071 6.29295C17 6.58584 17 7.05725 17 8.00005V9.00005C17 9.94286 17 10.4143 16.7071 10.7072C16.4142 11.0001 15.9428 11.0001 15 11.0001H2C1.05719 11.0001 0.585786 11.0001 0.292893 10.7072C0 10.4143 0 9.94286 0 9.00005V8.00005ZM0.850006 8.5C0.850006 8.03406 0.850006 7.80109 0.926127 7.61732C1.02762 7.37229 1.22229 7.17761 1.46732 7.07612C1.65109 7 1.88406 7 2.35001 7H14.65C15.1159 7 15.3489 7 15.5327 7.07612C15.7777 7.17761 15.9724 7.37229 16.0739 7.61732C16.15 7.80109 16.15 8.03406 16.15 8.5C16.15 8.96594 16.15 9.19891 16.0739 9.38268C15.9724 9.62771 15.7777 9.82239 15.5327 9.92388C15.3489 10 15.1159 10 14.65 10H2.35001C1.88406 10 1.65109 10 1.46732 9.92388C1.22229 9.82239 1.02762 9.62771 0.926127 9.38268C0.850006 9.19891 0.850006 8.96594 0.850006 8.5ZM4.5 8.99999C4.77614 8.99999 5 8.77614 5 8.49999C5 8.22385 4.77614 7.99999 4.5 7.99999C4.22386 7.99999 4 8.22385 4 8.49999C4 8.77614 4.22386 8.99999 4.5 8.99999ZM3 8.49999C3 8.77614 2.77614 8.99999 2.5 8.99999C2.22386 8.99999 2 8.77614 2 8.49999C2 8.22385 2.22386 7.99999 2.5 7.99999C2.77614 7.99999 3 8.22385 3 8.49999ZM6.5 7.99999C6.22386 7.99999 6 8.22385 6 8.49999C6 8.77614 6.22386 8.99999 6.5 8.99999H14.5C14.7761 8.99999 15 8.77614 15 8.49999C15 8.22385 14.7761 7.99999 14.5 7.99999H6.5Z" fill="#D9D9D9"/>
</svg>
